<?xml version="1.0" encoding="utf-8"?>
<!-- Generator: Adobe Illustrator 18.1.1, SVG Export Plug-In . SVG Version: 6.00 Build 0)  -->
<svg version="1.1" id="Layer_1" xmlns="http://www.w3.org/2000/svg" xmlns:xlink="http://www.w3.org/1999/xlink" x="0px" y="0px"
	 viewBox="0 0 595.3 595.3" enable-background="new 0 0 595.3 595.3" xml:space="preserve">
<rect x="0.5" y="0.1" fill="#FFF8EA" width="595" height="595"/>
<path fill="#FFF8EA" stroke="#3F464C" stroke-width="8" stroke-miterlimit="10" d="M217.9,315.7c-4.7,4.8-11.3,7.7-18.5,7.7H98.8
	c-14.4,0-26.2-11.8-26.2-26.2c0-7.2,2.9-13.8,7.7-18.5c4.8-4.7,11.3-7.7,18.5-7.7h100.6c12,0,22.1,8.1,25.2,19.1h18.7
	c-3.4-19.7-20.7-34.8-41.4-34.8H96.3c-11.5,0-22,4.7-29.7,12.3c-7.6,7.6-12.3,18.1-12.3,29.7c0,23.1,18.9,42,42,42H202
	c11.5,0,22-4.7,29.6-12.3c5.6-5.6,9.7-12.8,11.4-20.8h-18.9C222.8,309.7,220.6,313,217.9,315.7z"/>
<path fill="#FFF8EA" stroke="#3F464C" stroke-width="8" stroke-miterlimit="10" d="M498.4,256.1H392.7c-11.5,0-22,4.7-29.7,12.3
	c-5.8,5.8-9.9,13.3-11.5,21.7h18.7c1.3-4,3.5-7.6,6.5-10.5c4.8-4.8,11.3-7.7,18.5-7.7h100.6c14.4,0,26.2,11.8,26.2,26.2
	c0,7.2-2.9,13.7-7.7,18.5c-4.8,4.8-11.3,7.7-18.5,7.7H395.2c-11.6,0-21.6-7.7-25-18.2h-18.7c3.7,19.3,20.9,34,41.2,34h105.7
	c11.5,0,22-4.7,29.6-12.3s12.3-18.1,12.3-29.6C540.4,275,521.5,256.1,498.4,256.1z"/>
<path fill="#FFF8EA" stroke="#3F464C" stroke-width="8" stroke-miterlimit="10" d="M395.3,298.1c0,2.2-0.9,4.2-2.3,5.6
	c-1.5,1.5-3.4,2.3-5.6,2.3H205.7c-4.4,0-8-3.6-8-8c0-2.2,0.9-4.2,2.4-5.7c1.5-1.5,3.4-2.4,5.6-2.4h181.6
	C391.7,290.1,395.3,293.7,395.3,298.1z"/>
</svg>
