<?xml version="1.0" encoding="utf-8"?>
<!-- Generator: Adobe Illustrator 18.1.1, SVG Export Plug-In . SVG Version: 6.00 Build 0)  -->
<svg version="1.1" id="Layer_1" xmlns="http://www.w3.org/2000/svg" xmlns:xlink="http://www.w3.org/1999/xlink" x="0px" y="0px"
	 viewBox="0 0 595.3 595.3" enable-background="new 0 0 595.3 595.3" xml:space="preserve">
<rect x="1" y="1" fill="#FFF8EA" width="594.3" height="594.3"/>
<path fill="#FFF8E9" stroke="#3F464C" stroke-width="17.7977" stroke-miterlimit="10" d="M115.7,427.8L-31.1,576.7
	c14.8,19,31.9,36.1,50.8,51l146.9-149c14.1-14.1,14.1-36.9,0-50.9C152.6,413.8,129.8,413.8,115.7,427.8z"/>
<line fill="#87CFF2" stroke="#3F464C" stroke-width="29.6628" stroke-linecap="round" stroke-miterlimit="10" x1="307.3" y1="287.2" x2="147.9" y2="448.2"/>
<circle fill="#FFF8EA" cx="307.3" cy="287.2" r="125.6"/>
<path fill="#FFF8EA" d="M396.2,198.3L218.5,376c49.1,49.1,128.6,49.1,177.7,0S445.2,247.4,396.2,198.3z"/>
<path fill="#3F464C" d="M208.3,386.3c-54.6-54.6-54.6-143.5,0-198.2s143.5-54.6,198.2,0s54.6,143.5,0,198.2S262.9,440.9,208.3,386.3
	z M385.9,208.6c-43.3-43.3-113.8-43.3-157.2,0s-43.3,113.8,0,157.2s113.8,43.3,157.2,0S429.2,251.9,385.9,208.6z"/>
</svg>
