<?xml version="1.0" encoding="utf-8"?>
<!-- Generator: Adobe Illustrator 18.1.1, SVG Export Plug-In . SVG Version: 6.00 Build 0)  -->
<svg version="1.1" id="Layer_1" xmlns="http://www.w3.org/2000/svg" xmlns:xlink="http://www.w3.org/1999/xlink" x="0px" y="0px"
	 viewBox="0 0 595.3 595.3" enable-background="new 0 0 595.3 595.3" xml:space="preserve">
<rect fill="#FFF8E9" width="595.3" height="595.3"/>
<path fill="#FFF8E9" stroke="#3F464C" stroke-width="17.9275" stroke-miterlimit="10" d="M311.3,171.2l21.4,43.4
	c1.9,3.8,5.5,6.5,9.7,7.1l47.8,7c10.6,1.5,14.8,14.6,7.2,22.1l-34.6,33.8c-3,3-4.4,7.2-3.7,11.4l8.2,47.7
	c1.8,10.6-9.3,18.6-18.8,13.6l-42.8-22.5c-3.8-2-8.3-2-12,0l-42.8,22.5c-9.5,5-20.6-3.1-18.8-13.6l8.2-47.7
	c0.7-4.2-0.7-8.5-3.7-11.4L202,250.6c-7.7-7.5-3.4-20.5,7.2-22.1l47.8-7c4.2-0.6,7.9-3.3,9.7-7.1l21.4-43.4
	C292.8,161.5,306.5,161.5,311.3,171.2z"/>
<path fill="#FFF8E9" stroke="#3F464C" stroke-width="17.9275" stroke-miterlimit="10" d="M454.2,281.6l10.3,20.8
	c0.9,1.8,2.6,3.1,4.7,3.4l22.9,3.3c5.1,0.7,7.1,7,3.4,10.6l-16.6,16.2c-1.5,1.4-2.1,3.5-1.8,5.5l3.9,22.9c0.9,5.1-4.4,8.9-9,6.5
	l-20.5-10.8c-1.8-0.9-4-0.9-5.8,0l-20.5,10.8c-4.5,2.4-9.9-1.5-9-6.5l3.9-22.9c0.3-2-0.3-4.1-1.8-5.5l-16.6-16.2
	c-3.7-3.6-1.6-9.8,3.4-10.6l22.9-3.3c2-0.3,3.8-1.6,4.7-3.4l10.3-20.8C445.4,277,451.9,277,454.2,281.6z"/>
<path fill="#FFF8E9" stroke="#3F464C" stroke-width="17.9275" stroke-miterlimit="10" d="M154.8,283l10.3,20.8
	c0.9,1.8,2.6,3.1,4.7,3.4l22.9,3.3c5.1,0.7,7.1,7,3.4,10.6l-16.6,16.2c-1.5,1.4-2.1,3.5-1.8,5.5l3.9,22.9c0.9,5.1-4.4,8.9-9,6.5
	l-20.5-10.8c-1.8-0.9-4-0.9-5.8,0l-20.5,10.8c-4.5,2.4-9.9-1.5-9-6.5l3.9-22.9c0.3-2-0.3-4.1-1.8-5.5l-16.6-16.2
	c-3.7-3.6-1.6-9.8,3.4-10.6l22.9-3.3c2-0.3,3.8-1.6,4.7-3.4l10.3-20.8C146,278.4,152.6,278.4,154.8,283z"/>
</svg>
