<?xml version="1.0" encoding="utf-8"?>
<!-- Generator: Adobe Illustrator 18.1.1, SVG Export Plug-In . SVG Version: 6.00 Build 0)  -->
<svg version="1.1" id="Layer_1" xmlns="http://www.w3.org/2000/svg" xmlns:xlink="http://www.w3.org/1999/xlink" x="0px" y="0px"
	 viewBox="0 0 595.3 595.3" enable-background="new 0 0 595.3 595.3" xml:space="preserve">
<rect fill="#F47E67" width="595.3" height="595.3"/>
<path fill="#FFD34A" stroke="#3F464C" stroke-width="17.9805" stroke-miterlimit="10" d="M312.3,147.4l27,54.7
	c2.4,4.8,7,8.2,12.3,8.9l60.4,8.8c13.4,1.9,18.7,18.4,9,27.8l-43.7,42.6c-3.8,3.7-5.6,9.1-4.7,14.4l10.3,60.1
	c2.3,13.3-11.7,23.5-23.7,17.2l-54-28.4c-4.8-2.5-10.4-2.5-15.2,0l-54,28.4c-12,6.3-26-3.9-23.7-17.2l10.3-60.1
	c0.9-5.3-0.8-10.7-4.7-14.4l-43.7-42.6c-9.7-9.4-4.3-25.9,9-27.8l60.4-8.8c5.3-0.8,9.9-4.1,12.3-8.9l27-54.7
	C289,135.3,306.3,135.3,312.3,147.4z"/>
<path fill="#E5DCCF" stroke="#3F464C" stroke-width="17.9805" stroke-miterlimit="10" d="M506.8,595.3V331H88.5v264.3"/>
<path fill="#FFF8E9" stroke="#3F464C" stroke-width="17.9805" stroke-miterlimit="10" d="M299.4,619.2"/>
<line fill="#F47E67" stroke="#3F464C" stroke-width="17.9805" stroke-linecap="round" stroke-miterlimit="10" x1="196" y1="578.3" x2="196" y2="437"/>
<line fill="none" stroke="#3F464C" stroke-width="17.9805" stroke-linecap="round" stroke-miterlimit="10" x1="299.4" y1="597.3" x2="299.4" y2="437"/>
<line fill="#F47E67" stroke="#3F464C" stroke-width="17.9805" stroke-linecap="round" stroke-miterlimit="10" x1="402.8" y1="578.3" x2="402.8" y2="437"/>
</svg>
