<?xml version="1.0" encoding="utf-8"?>
<!-- Generator: Adobe Illustrator 18.1.1, SVG Export Plug-In . SVG Version: 6.00 Build 0)  -->
<svg version="1.1" id="Layer_1" xmlns="http://www.w3.org/2000/svg" xmlns:xlink="http://www.w3.org/1999/xlink" x="0px" y="0px"
	 viewBox="0 0 595.3 595.3" enable-background="new 0 0 595.3 595.3" xml:space="preserve">
<rect x="0.6" y="1.6" fill="#87CFF2" width="594.7" height="594"/>
<path fill="#F47E67" stroke="#3F464C" stroke-width="11.8806" stroke-miterlimit="10" d="M377.2,278.2c0,41.6-33.8,75.4-75.4,75.4
	s-75.4-33.8-75.4-75.4V173.2h-85.8v137c0,89,72.2,161.2,161.2,161.2S463,399.3,463,310.3v-137h-87L377.2,278.2z"/>
<rect x="140.7" y="173.2" fill="#FFF8E9" stroke="#3F464C" stroke-width="11.8806" stroke-miterlimit="10" width="85.8" height="59.9"/>
<rect x="377.2" y="173.2" fill="#FFF8E9" stroke="#3F464C" stroke-width="11.8806" stroke-miterlimit="10" width="85.8" height="59.9"/>
<path fill="#FFD34B" stroke="#3F464C" stroke-width="5.9403" stroke-miterlimit="10" d="M306.1,376.2l7.8,15.9
	c0.7,1.4,2,2.4,3.6,2.6l17.5,2.5c3.9,0.6,5.4,5.3,2.6,8.1l-12.7,12.3c-1.1,1.1-1.6,2.7-1.4,4.2l3,17.4c0.7,3.9-3.4,6.8-6.9,5
	l-15.7-8.2c-1.4-0.7-3-0.7-4.4,0l-15.7,8.2c-3.5,1.8-7.5-1.1-6.9-5l3-17.4c0.3-1.5-0.2-3.1-1.4-4.2l-12.7-12.3
	c-2.8-2.7-1.3-7.5,2.6-8.1l17.5-2.5c1.5-0.2,2.9-1.2,3.6-2.6l7.8-15.9C299.3,372.7,304.4,372.7,306.1,376.2z"/>
</svg>
