<?xml version="1.0" encoding="utf-8"?>
<!-- Generator: Adobe Illustrator 18.1.1, SVG Export Plug-In . SVG Version: 6.00 Build 0)  -->
<svg version="1.1" id="Layer_1" xmlns="http://www.w3.org/2000/svg" xmlns:xlink="http://www.w3.org/1999/xlink" x="0px" y="0px"
	 viewBox="0 0 595.3 595.3" enable-background="new 0 0 595.3 595.3" xml:space="preserve">
<defs>
	<filter id="Adobe_OpacityMaskFilter" filterUnits="userSpaceOnUse" x="95.8" y="95.8" width="403.6" height="403.6">
		<feColorMatrix  type="matrix" values="1 0 0 0 0  0 1 0 0 0  0 0 1 0 0  0 0 0 1 0"/>
	</filter>
</defs>
<mask maskUnits="userSpaceOnUse" x="95.8" y="95.8" width="403.6" height="403.6" id="SVGID_1_">
	<g filter="url(#Adobe_OpacityMaskFilter)">
		<path fill="#FFFFFF" d="M297.8,87.3c-115.2,0-208.5,93.3-208.5,208.5s93.3,208.5,208.5,208.5S506.3,411,506.3,295.8
			S413,87.3,297.8,87.3z M297.8,453.9c-87.3,0-158.1-70.8-158.1-158.1s70.8-158.1,158.1-158.1s158.1,70.8,158.1,158.1
			S385,453.9,297.8,453.9z"/>
	</g>
</mask>
<g mask="url(#SVGID_1_)">
	<g>
		<path fill="#3F464D" d="M297.5,280.2c-50.7,0-92.2-41.5-92.2-92.2s41.5-92.2,92.2-92.2s92.2,41.5,92.2,92.2
			S348.5,280.2,297.5,280.2z M297.5,109.7c-43.2,0-78.6,35.1-78.6,78.6s35.1,78.6,78.6,78.6c43.2,0,78.6-35.1,78.6-78.6
			S341,109.7,297.5,109.7z"/>
	</g>
	<g>
		<path fill="#3F464D" d="M297.5,499.4c-50.7,0-92.2-41.5-92.2-92.2s41.5-92.2,92.2-92.2s92.2,41.5,92.2,92.2
			C389.6,457.9,348.5,499.4,297.5,499.4z M297.5,328.6c-43.2,0-78.6,35.1-78.6,78.6s35.1,78.6,78.6,78.6c43.2,0,78.6-35.1,78.6-78.6
			S341,328.6,297.5,328.6z"/>
	</g>
	<g>
		<path fill="#3F464D" d="M407.2,389.9c-50.7,0-92.2-41.5-92.2-92.2s41.5-92.2,92.2-92.2s92.2,41.5,92.2,92.2
			C499.4,348.5,457.9,389.9,407.2,389.9z M407.2,219.2c-43.2,0-78.6,35.1-78.6,78.6c0,43.2,35.1,78.6,78.6,78.6
			c43.2,0,78.6-35.1,78.6-78.6C485.5,254.3,450.4,219.2,407.2,219.2z"/>
	</g>
	<g>
		<path fill="#3F464D" d="M188,389.9c-50.7,0-92.2-41.5-92.2-92.2s41.5-92.2,92.2-92.2s92.2,41.5,92.2,92.2
			C280.2,348.5,239,389.9,188,389.9z M188,219.2c-43.2,0-78.6,35.1-78.6,78.6c0,43.2,35.1,78.6,78.6,78.6
			c43.2,0,78.6-35.1,78.6-78.6S231.5,219.2,188,219.2z"/>
	</g>
</g>
<path fill="none" d="M297.8,138.2c-87.3,0-158.1,70.8-158.1,158.1s70.8,158.1,158.1,158.1s158.1-70.8,158.1-158.1
	S385,138.2,297.8,138.2z M297.8,364c-37.4,0-67.7-30.2-67.7-67.7s30.2-67.7,67.7-67.7s67.7,30.2,67.7,67.7S335.2,364,297.8,364z"/>
<path fill="#3F464D" d="M297.8,463.4c-22.5,0-44.4-4.3-65.1-13.2c-19.9-8.4-37.7-20.4-53-35.7c-15.3-15.3-27.4-33.1-35.7-53
	c-8.6-20.7-13.2-42.6-13.2-65.1s4.3-44.4,13.2-65.1c8.4-19.9,20.4-37.7,35.7-53.3c15.3-15.3,33.1-27.4,53-35.7
	c20.7-8.6,42.6-13.2,65.1-13.2c22.5,0,44.4,4.3,65.1,13.2c19.9,8.4,37.7,20.4,53,35.7c15.3,15.3,27.4,33.1,35.7,53
	c8.6,20.7,13.2,42.6,13.2,65.1c0,22.5-4.3,44.4-13.2,65.1c-8.4,19.9-20.4,37.7-35.7,53s-33.1,27.4-53,35.7
	C342.4,458.8,320.5,463.4,297.8,463.4z M297.8,147.2c-39.7,0-77.2,15.6-105.4,43.8s-43.8,65.7-43.8,105.4s15.6,77.2,43.8,105.4
	s65.7,43.8,105.4,43.8S375,430,403.2,401.8S447,336.1,447,296.4s-15.6-77.2-43.8-105.4C375,162.7,337.8,147.2,297.8,147.2z
	 M297.8,373c-42.3,0-76.9-34.6-76.9-76.9s34.6-76.6,76.9-76.6s76.9,34.6,76.9,76.9S340.1,373,297.8,373z M297.8,237.6
	c-32.3,0-58.8,26.2-58.8,58.8c0,32.3,26.2,58.8,58.8,58.8c32.3,0,58.8-26.2,58.8-58.8S330.3,237.6,297.8,237.6z"/>
<defs>
	<filter id="Adobe_OpacityMaskFilter_1_" filterUnits="userSpaceOnUse" x="120.5" y="119.1" width="354.8" height="354.8">
		<feColorMatrix  type="matrix" values="1 0 0 0 0  0 1 0 0 0  0 0 1 0 0  0 0 0 1 0"/>
	</filter>
</defs>
<mask maskUnits="userSpaceOnUse" x="120.5" y="119.1" width="354.8" height="354.8" id="SVGID_2_">
	<g filter="url(#Adobe_OpacityMaskFilter_1_)">
		<path fill="#FFFFFF" d="M297.8,147.2c-39.7,0-77.2,15.6-105.4,43.8s-43.8,65.7-43.8,105.4s15.6,77.2,43.8,105.4
			s65.7,43.8,105.4,43.8S375,430,403.2,401.8S447,336.1,447,296.4s-15.6-77.2-43.8-105.4C375,162.7,337.8,147.2,297.8,147.2z
			 M297.8,373c-42.3,0-76.9-34.6-76.9-76.9s34.6-76.6,76.9-76.6s76.9,34.6,76.9,76.9S340.1,373,297.8,373z"/>
	</g>
</mask>
<g mask="url(#SVGID_2_)">
	<polygon fill="none" stroke="#3F464C" stroke-width="6" stroke-miterlimit="10" points="246.5,470.9 297.8,296.3 349.3,470.9 	"/>
	<polygon fill="none" stroke="#3F464C" stroke-width="6" stroke-miterlimit="10" points="246.5,122.1 297.8,296.6 349.3,122.1 	"/>
	<polygon fill="none" stroke="#3F464C" stroke-width="6" stroke-miterlimit="10" points="123.5,245.1 298.1,296.3 123.5,347.9 	"/>
	<polygon fill="none" stroke="#3F464C" stroke-width="6" stroke-miterlimit="10" points="472.3,245.1 297.5,296.3 472.3,347.9 	"/>
</g>
</svg>
