<?xml version="1.0" encoding="utf-8"?>
<!-- Generator: Adobe Illustrator 18.1.1, SVG Export Plug-In . SVG Version: 6.00 Build 0)  -->
<svg version="1.1" id="Layer_1" xmlns="http://www.w3.org/2000/svg" xmlns:xlink="http://www.w3.org/1999/xlink" x="0px" y="0px"
	 viewBox="0 0 595.3 595.3" enable-background="new 0 0 595.3 595.3" xml:space="preserve">
<rect fill="#87CFF2" width="595.3" height="595.3"/>
<g>
	<defs>
		<filter id="Adobe_OpacityMaskFilter" filterUnits="userSpaceOnUse" x="96.1" y="95.8" width="403.6" height="403.6">
			<feColorMatrix  type="matrix" values="1 0 0 0 0  0 1 0 0 0  0 0 1 0 0  0 0 0 1 0"/>
		</filter>
	</defs>
	<mask maskUnits="userSpaceOnUse" x="96.1" y="95.8" width="403.6" height="403.6" id="SVGID_1_">
		<g filter="url(#Adobe_OpacityMaskFilter)">
			<path fill="#FFFFFF" d="M298.1,87.3c-115.2,0-208.5,93.3-208.5,208.5s93.3,208.5,208.5,208.5S506.6,411,506.6,295.8
				S413.3,87.3,298.1,87.3z M298.1,453.9c-87.3,0-158.1-70.8-158.1-158.1s70.8-158.1,158.1-158.1s158.1,70.8,158.1,158.1
				S385.3,453.9,298.1,453.9z"/>
		</g>
	</mask>
	<g mask="url(#SVGID_1_)">
		<g>
			<path fill="#3F464D" d="M297.8,280.2c-50.7,0-92.2-41.5-92.2-92.2s41.5-92.2,92.2-92.2S390,137.3,390,188
				S348.8,280.2,297.8,280.2z M297.8,109.7c-43.2,0-78.6,35.1-78.6,78.6s35.1,78.6,78.6,78.6c43.2,0,78.6-35.1,78.6-78.6
				S341.3,109.7,297.8,109.7z"/>
		</g>
		<g>
			<path fill="#3F464D" d="M297.8,499.4c-50.7,0-92.2-41.5-92.2-92.2s41.5-92.2,92.2-92.2s92.2,41.5,92.2,92.2
				C389.9,457.9,348.8,499.4,297.8,499.4z M297.8,328.6c-43.2,0-78.6,35.1-78.6,78.6s35.1,78.6,78.6,78.6
				c43.2,0,78.6-35.1,78.6-78.6S341.3,328.6,297.8,328.6z"/>
		</g>
		<g>
			<path fill="#3F464D" d="M407.5,389.9c-50.7,0-92.2-41.5-92.2-92.2s41.5-92.2,92.2-92.2s92.2,41.5,92.2,92.2
				C499.7,348.5,458.2,389.9,407.5,389.9z M407.5,219.2c-43.2,0-78.6,35.1-78.6,78.6c0,43.2,35.1,78.6,78.6,78.6
				c43.2,0,78.6-35.1,78.6-78.6C485.8,254.3,450.7,219.2,407.5,219.2z"/>
		</g>
		<g>
			<path fill="#3F464D" d="M188.3,389.9c-50.7,0-92.2-41.5-92.2-92.2s41.5-92.2,92.2-92.2s92.2,41.5,92.2,92.2
				C280.5,348.5,239.3,389.9,188.3,389.9z M188.3,219.2c-43.2,0-78.6,35.1-78.6,78.6c0,43.2,35.1,78.6,78.6,78.6
				c43.2,0,78.6-35.1,78.6-78.6C267,254.3,231.8,219.2,188.3,219.2z"/>
		</g>
	</g>
	<g>
		<path fill="#F47E67" d="M298.1,138.2C210.8,138.2,140,209,140,296.3s70.8,158.1,158.1,158.1s158.1-70.8,158.1-158.1
			S385.3,138.2,298.1,138.2z M298.1,364c-37.4,0-67.7-30.2-67.7-67.7s30.2-67.7,67.7-67.7s67.7,30.2,67.7,67.7S335.5,364,298.1,364z
			"/>
		<path fill="#3F464D" d="M298.1,463.4c-22.5,0-44.4-4.3-65.1-13.2c-19.9-8.4-37.7-20.4-53-35.7c-15.3-15.3-27.4-33.1-35.7-53
			c-8.6-20.7-13.2-42.6-13.2-65.1s4.3-44.4,13.2-65.1c8.4-19.9,20.4-37.7,35.7-53.3c15.3-15.3,33.1-27.4,53-35.7
			c20.7-8.6,42.6-13.2,65.1-13.2c22.5,0,44.4,4.3,65.1,13.2c19.9,8.4,37.7,20.4,53,35.7s27.4,33.1,35.7,53
			c8.6,20.7,13.2,42.6,13.2,65.1c0,22.5-4.3,44.4-13.2,65.1c-8.4,19.9-20.4,37.7-35.7,53c-15.3,15.3-33.1,27.4-53,35.7
			C342.7,458.8,320.8,463.4,298.1,463.4z M298.1,147.2c-39.7,0-77.2,15.6-105.4,43.8s-43.8,65.7-43.8,105.4s15.6,77.2,43.8,105.4
			s65.7,43.8,105.4,43.8s77.2-15.6,105.4-43.8s43.8-65.7,43.8-105.4s-15.6-77.2-43.8-105.4C375.3,162.7,338.1,147.2,298.1,147.2z
			 M298.1,373c-42.3,0-76.9-34.6-76.9-76.9s34.6-76.6,76.9-76.6s76.9,34.6,76.9,76.9S340.4,373,298.1,373z M298.1,237.6
			c-32.3,0-58.8,26.2-58.8,58.8c0,32.3,26.2,58.8,58.8,58.8c32.3,0,58.8-26.2,58.8-58.8S330.6,237.6,298.1,237.6z"/>
	</g>
	<defs>
		<filter id="Adobe_OpacityMaskFilter_1_" filterUnits="userSpaceOnUse" x="123.8" y="122.1" width="348.8" height="348.8">
			<feColorMatrix  type="matrix" values="1 0 0 0 0  0 1 0 0 0  0 0 1 0 0  0 0 0 1 0"/>
		</filter>
	</defs>
	<mask maskUnits="userSpaceOnUse" x="123.8" y="122.1" width="348.8" height="348.8" id="SVGID_2_">
		<g filter="url(#Adobe_OpacityMaskFilter_1_)">
			<path fill="#FFFFFF" d="M298.1,147.2c-39.7,0-77.2,15.6-105.4,43.8s-43.8,65.7-43.8,105.4s15.6,77.2,43.8,105.4
				s65.7,43.8,105.4,43.8s77.2-15.6,105.4-43.8s43.8-65.7,43.8-105.4s-15.6-77.2-43.8-105.4C375.3,162.7,338.1,147.2,298.1,147.2z
				 M298.1,373c-42.3,0-76.9-34.6-76.9-76.9s34.6-76.6,76.9-76.6s76.9,34.6,76.9,76.9S340.4,373,298.1,373z"/>
		</g>
	</mask>
	<g mask="url(#SVGID_2_)">
		<polygon fill="#FFF6E6" points="246.8,470.9 298.1,296.3 349.6,470.9 		"/>
		<polygon fill="#FFF6E6" points="246.8,122.1 298.1,296.6 349.6,122.1 		"/>
		<polygon fill="#FFF6E6" points="123.8,245.1 298.4,296.3 123.8,347.9 		"/>
		<polygon fill="#FFF6E6" points="472.6,245.1 297.8,296.3 472.6,347.9 		"/>
	</g>
</g>
</svg>
