<?xml version="1.0" encoding="utf-8"?>
<!-- Generator: Adobe Illustrator 18.1.1, SVG Export Plug-In . SVG Version: 6.00 Build 0)  -->
<svg version="1.1" id="Layer_1" xmlns="http://www.w3.org/2000/svg" xmlns:xlink="http://www.w3.org/1999/xlink" x="0px" y="0px"
	 viewBox="0 0 595.3 595.3" enable-background="new 0 0 595.3 595.3" xml:space="preserve">
<rect x="0.7" fill="#FFF8E9" width="593.9" height="599"/>
<path fill="#FFF8EA" stroke="#3F464C" stroke-width="17.8172" stroke-miterlimit="10" d="M312.1,132.2l26.8,54.2
	c2.4,4.8,6.9,8.1,12.2,8.8l59.8,8.7c13.3,1.9,18.6,18.2,9,27.6l-43.3,42.2c-3.8,3.7-5.5,9.1-4.6,14.3l10.2,59.6
	c2.3,13.2-11.6,23.3-23.5,17l-53.5-28.1c-4.7-2.5-10.3-2.5-15,0l-53.5,28.1c-11.9,6.2-25.7-3.8-23.5-17l10.2-59.6
	c0.9-5.2-0.8-10.6-4.6-14.3l-43.3-42.2c-9.6-9.4-4.3-25.7,9-27.6l59.8-8.7c5.3-0.8,9.8-4.1,12.2-8.8l26.8-54.2
	C289.1,120.2,306.2,120.2,312.1,132.2z"/>
<line fill="none" stroke="#40464C" stroke-width="17.8172" stroke-linecap="round" stroke-miterlimit="10" x1="424.8" y1="283.4" x2="424.8" y2="414.4"/>
<line fill="none" stroke="#40464C" stroke-width="17.8172" stroke-linecap="round" stroke-miterlimit="10" x1="297.6" y1="414.9" x2="297.6" y2="472.1"/>
<line fill="none" stroke="#40464C" stroke-width="17.8172" stroke-linecap="round" stroke-miterlimit="10" x1="170.5" y1="283.4" x2="170.5" y2="364.7"/>
<line fill="none" stroke="#40464C" stroke-width="17.8172" stroke-linecap="round" stroke-miterlimit="10" x1="170.5" y1="403" x2="170.5" y2="426.8"/>
</svg>
