<?xml version="1.0" encoding="utf-8"?>
<!-- Generator: Adobe Illustrator 18.1.1, SVG Export Plug-In . SVG Version: 6.00 Build 0)  -->
<svg version="1.1" id="Layer_1" xmlns="http://www.w3.org/2000/svg" xmlns:xlink="http://www.w3.org/1999/xlink" x="0px" y="0px"
	 viewBox="0 0 595.3 595.3" enable-background="new 0 0 595.3 595.3" xml:space="preserve">
<rect fill="#FFF8E9" width="595.3" height="595.3"/>
<g>
	<path fill="#3F464C" d="M408.8,257.3h-96c-27.1,0-49.2-22.1-49.2-49.2s22.1-49.2,49.2-49.2h96c27.1,0,49.2,22.1,49.2,49.2
		S435.9,257.3,408.8,257.3z M312.8,174.3c-18.6,0-33.8,15.2-33.8,33.8s15.2,33.8,33.8,33.8h96c18.6,0,33.8-15.2,33.8-33.8
		s-15.2-33.8-33.8-33.8H312.8z"/>
</g>
<g>
	<path fill="#3F464C" d="M282.5,257.3h-96c-27.1,0-49.2-22.1-49.2-49.2s22.1-49.2,49.2-49.2h96c27.1,0,49.2,22.1,49.2,49.2
		S309.6,257.3,282.5,257.3z M186.5,174.3c-18.6,0-33.8,15.2-33.8,33.8s15.2,33.8,33.8,33.8h96c18.6,0,33.8-15.2,33.8-33.8
		s-15.2-33.8-33.8-33.8H186.5z"/>
</g>
<path fill="#FFF8E9" d="M297.1,336.3L297.1,336.3c-48.4,0-87.6-39.2-87.6-87.6V132.4h175.1v116.3
	C384.6,297.1,345.4,336.3,297.1,336.3z"/>
<path fill="none" stroke="#3F464C" stroke-width="8" stroke-miterlimit="10" d="M384.6,132.4h-44.5L210.5,262
	c4.4,28.9,22.9,53.1,48.2,65.5l125.9-125.9V132.4z"/>
<path fill="#3F464C" d="M297.1,344c-52.5,0-95.3-42.7-95.3-95.3v-124h190.5v124.1C392.3,301.3,349.6,344,297.1,344z M217.2,140.1
	v108.6c0,44,35.8,79.8,79.8,79.8s79.8-35.8,79.8-79.8V140.1H217.2z"/>
<g>
	<line fill="none" x1="297.1" y1="336.3" x2="297.1" y2="381.1"/>
	<rect x="280.8" y="336.3" fill="#3F464C" width="32.4" height="44.8"/>
</g>
<path fill="#FFF8E9" d="M297.1,368.3c-27.3,0-49.4,22.1-49.4,49.4h98.8C346.5,390.4,324.3,368.3,297.1,368.3z"/>
<path fill="#3F464C" d="M354.2,425.4H239.9v-7.7c0-31.5,25.6-57.1,57.1-57.1s57.1,25.6,57.1,57.1v7.7H354.2z M256.1,410H338
	c-3.6-19.3-20.6-34-41-34S259.7,390.7,256.1,410z"/>
<path fill="#3F464C" d="M381,467.6H213.1V410H381V467.6z M228.6,452.1h136.9v-26.7H228.6V452.1z"/>
</svg>
