<?xml version="1.0" encoding="utf-8"?>
<!-- Generator: Adobe Illustrator 18.1.1, SVG Export Plug-In . SVG Version: 6.00 Build 0)  -->
<svg version="1.1" id="Laag_1" xmlns="http://www.w3.org/2000/svg" xmlns:xlink="http://www.w3.org/1999/xlink" x="0px" y="0px"
	 viewBox="0 0 68.3 79" enable-background="new 0 0 68.3 79" xml:space="preserve">
<g>
	<circle fill="#FFFBF0" stroke="#45484E" stroke-width="6" stroke-miterlimit="10" cx="34.1" cy="45.7" r="28.3"/>
	
		<line fill="none" stroke="#45484E" stroke-width="4.5" stroke-linecap="round" stroke-miterlimit="10" x1="34.1" y1="17.4" x2="34.1" y2="23.9"/>
	
		<line fill="none" stroke="#45484E" stroke-width="4.5" stroke-linecap="round" stroke-miterlimit="10" x1="34.1" y1="67.5" x2="34.1" y2="74"/>
	
		<line fill="none" stroke="#45484E" stroke-width="4.5" stroke-linecap="round" stroke-miterlimit="10" x1="62.4" y1="45.7" x2="55.9" y2="45.7"/>
	
		<line fill="none" stroke="#45484E" stroke-width="4.5" stroke-linecap="round" stroke-miterlimit="10" x1="12.3" y1="45.7" x2="5.8" y2="45.7"/>
	<path fill="none" stroke="#45484E" stroke-width="6" stroke-miterlimit="10" d="M40.3,18.1v-7.4c0-3.4-2.8-6.2-6.2-6.2h0
		c-3.4,0-6.2,2.8-6.2,6.2v7.4"/>
	<g>
		<path fill="#EF7B64" d="M42.5,34.2l-9.9,9.9l3,3l9.9-9.9c0.8-0.8,0.8-2.2,0-3C44.7,33.4,43.3,33.4,42.5,34.2z"/>
		<path fill="#45484E" d="M32.6,44.2l-9.9,9.9c-0.8,0.8-0.8,2.2,0,3c0.8,0.8,2.2,0.8,3,0l9.9-9.9L32.6,44.2z"/>
		<circle fill="#FFFBF0" stroke="#45484E" stroke-width="6" stroke-miterlimit="10" cx="34.1" cy="45.7" r="6.2"/>
	</g>
</g>
</svg>
