<?xml version="1.0" encoding="utf-8"?>
<!-- Generator: Adobe Illustrator 18.1.1, SVG Export Plug-In . SVG Version: 6.00 Build 0)  -->
<svg version="1.1" id="Laag_1" xmlns="http://www.w3.org/2000/svg" xmlns:xlink="http://www.w3.org/1999/xlink" x="0px" y="0px"
	 viewBox="0 0 595.3 595.3" enable-background="new 0 0 595.3 595.3" xml:space="preserve">
<g>
	<g>
		<path fill="#45484E" d="M500.5,539.4c-10.1,0-20.1-3.8-27.9-11.5L263.1,318.3c-7.4-7.4-11.6-17.4-11.5-27.9s4.1-20.5,11.6-27.9
			L459.6,67.3c15.4-15.3,40.3-15.2,55.6,0.2c15.3,15.4,15.2,40.3-0.2,55.6L346.5,290.5l181.7,181.7c15.3,15.3,15.3,40.3,0,55.6
			C520.5,535.6,510.4,539.4,500.5,539.4z"/>
	</g>
	<g>
		<path fill="#45484E" d="M67.1,527.8c-15.3-15.3-15.3-40.3,0-55.6l181.7-181.7L80.3,123.1c-15.4-15.3-15.5-40.2-0.2-55.6
			c15.3-15.4,40.2-15.5,55.6-0.2l196.4,195.3c7.4,7.3,11.5,17.4,11.6,27.9c0.1,10.4-4,20.4-11.5,27.9L122.7,527.9
			c-7.8,7.7-17.8,11.5-27.9,11.5C84.8,539.4,74.7,535.6,67.1,527.8z"/>
	</g>
</g>
</svg>
