<?xml version="1.0" encoding="utf-8"?>
<!-- Generator: Adobe Illustrator 18.1.1, SVG Export Plug-In . SVG Version: 6.00 Build 0)  -->
<svg version="1.1" id="Laag_1" xmlns="http://www.w3.org/2000/svg" xmlns:xlink="http://www.w3.org/1999/xlink" x="0px" y="0px"
	 viewBox="0 0 71.3 71.1" enable-background="new 0 0 71.3 71.1" xml:space="preserve">
<line fill="#99D3F4" stroke="#45484E" stroke-width="10" stroke-linecap="round" stroke-miterlimit="10" x1="40.4" y1="31.5" x2="7.4" y2="64.8"/>
<circle fill="#99D3F4" cx="40.4" cy="31.5" r="26"/>
<path fill="#BCE2F6" d="M58.8,13.1L22,49.9C32.1,60,48.6,60,58.8,49.9S68.9,23.3,58.8,13.1z"/>
<path fill="#45484E" d="M19.9,52c-11.3-11.3-11.3-29.7,0-41s29.7-11.3,41,0s11.3,29.7,0,41S31.2,63.3,19.9,52z M56.6,15.2
	c-9-9-23.6-9-32.5,0s-9,23.6,0,32.5s23.6,9,32.5,0S65.6,24.2,56.6,15.2z"/>
</svg>
