<?xml version="1.0" encoding="utf-8"?>
<!-- Generator: Adobe Illustrator 18.1.1, SVG Export Plug-In . SVG Version: 6.00 Build 0)  -->
<svg version="1.1" id="Laag_1" xmlns="http://www.w3.org/2000/svg" xmlns:xlink="http://www.w3.org/1999/xlink" x="0px" y="0px"
	 viewBox="0 0 132.2 131.2" enable-background="new 0 0 132.2 131.2" xml:space="preserve">
<g>
	<defs>
		<filter id="Adobe_OpacityMaskFilter" filterUnits="userSpaceOnUse" x="3.3" y="3.1" width="125" height="125">
			<feColorMatrix  type="matrix" values="1 0 0 0 0  0 1 0 0 0  0 0 1 0 0  0 0 0 1 0"/>
		</filter>
	</defs>
	<mask maskUnits="userSpaceOnUse" x="3.3" y="3.1" width="125" height="125" id="SVGID_1_">
		<g filter="url(#Adobe_OpacityMaskFilter)">
			<path fill="#FFFFFF" d="M65.8,0.3C30.1,0.3,1.2,29.3,1.2,65s28.9,64.6,64.6,64.6s64.6-28.9,64.6-64.6S101.5,0.3,65.8,0.3z
				 M65.8,114c-27.1,0-49-21.9-49-49s21.9-49,49-49s49,21.9,49,49S92.9,114,65.8,114z"/>
		</g>
	</mask>
	<g mask="url(#SVGID_1_)">
		<g>
			<path fill="#45484F" d="M65.8,60.2c-15.7,0-28.6-12.8-28.6-28.6S50,3.1,65.8,3.1c15.7,0,28.6,12.8,28.6,28.6S81.5,60.2,65.8,60.2
				z M65.8,7.3c-13.4,0-24.4,10.9-24.4,24.4S52.3,56,65.8,56c13.4,0,24.4-10.9,24.4-24.4S79.2,7.3,65.8,7.3z"/>
		</g>
		<g>
			<path fill="#45484F" d="M65.8,128.1c-15.7,0-28.6-12.8-28.6-28.6S50,70.9,65.8,70.9c15.7,0,28.6,12.8,28.6,28.6
				S81.5,128.1,65.8,128.1z M65.8,75.1c-13.4,0-24.4,10.9-24.4,24.4s10.9,24.4,24.4,24.4c13.4,0,24.4-10.9,24.4-24.4
				S79.2,75.1,65.8,75.1z"/>
		</g>
		<g>
			<path fill="#45484F" d="M99.7,94.1c-15.7,0-28.6-12.8-28.6-28.6C71.1,49.8,83.9,37,99.7,37c15.7,0,28.6,12.8,28.6,28.6
				C128.2,81.3,115.4,94.1,99.7,94.1z M99.7,41.2c-13.4,0-24.4,10.9-24.4,24.4c0,13.4,10.9,24.4,24.4,24.4
				c13.4,0,24.4-10.9,24.4-24.4C124,52.1,113.1,41.2,99.7,41.2z"/>
		</g>
		<g>
			<path fill="#45484F" d="M31.8,94.1c-15.7,0-28.6-12.8-28.6-28.6C3.3,49.8,16.1,37,31.8,37c15.7,0,28.6,12.8,28.6,28.6
				C60.4,81.3,47.6,94.1,31.8,94.1z M31.8,41.2c-13.4,0-24.4,10.9-24.4,24.4c0,13.4,10.9,24.4,24.4,24.4c13.4,0,24.4-10.9,24.4-24.4
				C56.2,52.1,45.2,41.2,31.8,41.2z"/>
		</g>
	</g>
	<g>
		<path fill="#EF7B64" d="M65.8,16.1c-27.1,0-49,21.9-49,49s21.9,49,49,49s49-21.9,49-49S92.9,16.1,65.8,16.1z M65.8,86.1
			c-11.6,0-21-9.4-21-21s9.4-21,21-21s21,9.4,21,21S77.4,86.1,65.8,86.1z"/>
		<path fill="#45484F" d="M65.8,116.9c-7,0-13.8-1.4-20.2-4.1c-6.2-2.6-11.7-6.3-16.5-11.1c-4.8-4.8-8.5-10.3-11.1-16.5
			C15.4,78.9,14,72.1,14,65.1c0-7,1.4-13.8,4.1-20.2c2.6-6.2,6.3-11.7,11.1-16.5C34,23.7,39.5,20,45.7,17.4
			c6.4-2.7,13.2-4.1,20.2-4.1c7,0,13.8,1.4,20.2,4.1c6.2,2.6,11.7,6.3,16.5,11.1c4.8,4.8,8.5,10.3,11.1,16.5
			c2.7,6.4,4.1,13.2,4.1,20.2c0,7-1.4,13.8-4.1,20.2c-2.6,6.2-6.3,11.7-11.1,16.5s-10.3,8.5-16.5,11.1
			C79.6,115.5,72.8,116.9,65.8,116.9z M65.8,18.9c-12.3,0-23.9,4.8-32.7,13.5S19.6,52.8,19.6,65.1S24.4,89,33.2,97.8
			c8.7,8.7,20.3,13.5,32.7,13.5s23.9-4.8,32.7-13.5C107.2,89,112,77.4,112,65.1s-4.8-23.9-13.5-32.7C89.8,23.7,78.2,18.9,65.8,18.9z
			 M65.8,88.9C52.7,88.9,42,78.2,42,65.1s10.7-23.8,23.8-23.8S89.6,52,89.6,65.1S79,88.9,65.8,88.9z M65.8,46.9
			c-10,0-18.2,8.2-18.2,18.2c0,10,8.2,18.2,18.2,18.2c10,0,18.2-8.2,18.2-18.2C84,55.1,75.9,46.9,65.8,46.9z"/>
	</g>
	<defs>
		<filter id="Adobe_OpacityMaskFilter_1_" filterUnits="userSpaceOnUse" x="11.8" y="11.1" width="108.1" height="108.1">
			<feColorMatrix  type="matrix" values="1 0 0 0 0  0 1 0 0 0  0 0 1 0 0  0 0 0 1 0"/>
		</filter>
	</defs>
	<mask maskUnits="userSpaceOnUse" x="11.8" y="11.1" width="108.1" height="108.1" id="SVGID_2_">
		<g filter="url(#Adobe_OpacityMaskFilter_1_)">
			<path fill="#FFFFFF" d="M65.8,18.9c-12.3,0-23.9,4.8-32.7,13.5S19.6,52.8,19.6,65.1S24.4,89,33.2,97.8
				c8.7,8.7,20.3,13.5,32.7,13.5s23.9-4.8,32.7-13.5C107.2,89,112,77.4,112,65.1s-4.8-23.9-13.5-32.7C89.8,23.7,78.2,18.9,65.8,18.9
				z M65.8,88.9C52.7,88.9,42,78.2,42,65.1s10.7-23.8,23.8-23.8S89.6,52,89.6,65.1S79,88.9,65.8,88.9z"/>
		</g>
	</mask>
	<g mask="url(#SVGID_2_)">
		<polygon fill="#FFFAED" points="49.9,119.3 65.8,65.1 81.8,119.3 		"/>
		<polygon fill="#FFFAED" points="49.9,11.1 65.8,65.3 81.8,11.1 		"/>
		<polygon fill="#FFFAED" points="11.8,49.3 65.9,65.2 11.8,81.1 		"/>
		<polygon fill="#FFFAED" points="119.9,49.3 65.8,65.2 119.9,81.1 		"/>
	</g>
</g>
</svg>
