<?xml version="1.0" encoding="utf-8"?>
<!-- Generator: Adobe Illustrator 18.1.1, SVG Export Plug-In . SVG Version: 6.00 Build 0)  -->
<svg version="1.1" id="Layer_1" xmlns="http://www.w3.org/2000/svg" xmlns:xlink="http://www.w3.org/1999/xlink" x="0px" y="0px"
	 viewBox="0 0 595.3 595.3" enable-background="new 0 0 595.3 595.3" xml:space="preserve">
<g>
	<g>
		<g>
			<path fill="#C16451" d="M530.9,260.1C528.1,130,438.1,25.5,327.6,25.5c-3,0-5.9,0.1-8.8,0.2c-2.9-0.2-5.9-0.2-8.9-0.2
				c-112.3,0-203.4,107.8-203.4,240.9c0,133,91.1,240.8,203.4,240.8c3,0,5.9-0.1,8.9-0.2c62.1-3.1,116.9-39.2,152.4-93.9v156.7h59.8
				V266.4C530.9,264.3,530.9,262.2,530.9,260.1z M318.7,454.1c-83.6-5.4-150-87.4-150-187.7c0-100.3,66.3-182.3,150-187.7
				c83.6,5.4,149.9,87.4,149.9,187.7C468.6,366.7,402.3,448.7,318.7,454.1z"/>
		</g>
	</g>
	<g>
		<g>
			<path fill="none" stroke="#40464C" stroke-width="11.1449" stroke-miterlimit="10" d="M530.9,260.1
				C528.1,130,438.1,25.5,327.6,25.5c-3,0-5.9,0.1-8.8,0.2c-2.9-0.2-5.9-0.2-8.9-0.2c-112.3,0-203.4,107.8-203.4,240.9
				c0,133,91.1,240.8,203.4,240.8c3,0,5.9-0.1,8.9-0.2c62.1-3.1,116.9-39.2,152.4-93.9v156.7h59.8V266.4
				C530.9,264.3,530.9,262.2,530.9,260.1z M318.7,454.1c-83.6-5.4-150-87.4-150-187.7c0-100.3,66.3-182.3,150-187.7
				c83.6,5.4,149.9,87.4,149.9,187.7C468.6,366.7,402.3,448.7,318.7,454.1z"/>
		</g>
	</g>
</g>
<g>
	<g>
		<g>
			<path fill="#F47E67" d="M471.1,260.1C468.3,130,378.3,25.5,267.7,25.5C157.2,25.5,67.2,130,64.4,260.1c-0.1,2.1-0.1,4.2-0.1,6.3
				v303.4h406.8V266.4C471.2,264.3,471.1,262.2,471.1,260.1z M109,260.1c2.8-100.9,72.8-181.7,158.7-181.7s155.9,80.8,158.7,181.7
				H109z"/>
		</g>
	</g>
	<g>
		<g>
			<path fill="none" stroke="#40464C" stroke-width="11.1449" stroke-miterlimit="10" d="M471.1,260.1
				C468.3,130,378.3,25.5,267.7,25.5C157.2,25.5,67.2,130,64.4,260.1c-0.1,2.1-0.1,4.2-0.1,6.3v303.4h406.8V266.4
				C471.2,264.3,471.1,262.2,471.1,260.1z M109,260.1c2.8-100.9,72.8-181.7,158.7-181.7s155.9,80.8,158.7,181.7H109z"/>
		</g>
	</g>
</g>
</svg>
