<?xml version="1.0" encoding="utf-8"?>
<!-- Generator: Adobe Illustrator 18.1.1, SVG Export Plug-In . SVG Version: 6.00 Build 0)  -->
<svg version="1.1" id="Laag_1" xmlns="http://www.w3.org/2000/svg" xmlns:xlink="http://www.w3.org/1999/xlink" x="0px" y="0px"
	 viewBox="207 77.9 607.6 606.4" enable-background="new 207 77.9 607.6 606.4" xml:space="preserve">
<g>
	<path fill="#EF7B64" d="M510.2,94.2c-158.6,0-286.8,128.2-286.8,286.8s128.2,286.8,286.8,286.8S797,539.6,797,381
		S668.9,94.2,510.2,94.2z M510.2,504c-67.9,0-122.9-55-122.9-122.9s55-122.9,122.9-122.9s122.9,55,122.9,122.9S578.1,504,510.2,504z
		"/>
	<path fill="#45484F" d="M510.2,684.3c-41,0-80.8-8.2-118.2-24c-36.3-15.2-68.5-36.9-96.6-65s-49.8-60.3-65-96.6
		C215.2,461.9,207,422,207,381.1s8.2-80.8,24-118.2c15.2-36.3,36.9-68.5,65-96.6c28.1-27.5,60.3-49.2,96.6-64.4
		c37.5-15.8,77.3-24,118.2-24c41,0,80.8,8.2,118.2,24c36.3,15.2,68.5,36.9,96.6,65s49.8,60.3,65,96.6c15.8,37.5,24,77.3,24,118.2
		s-8.2,80.8-24,118.2c-15.2,36.3-36.9,68.5-65,96.6s-60.3,49.8-96.6,65C591,676.1,551.2,684.3,510.2,684.3z M510.2,110.6
		c-72,0-139.9,28.1-191.4,79s-79,119.4-79,191.4s28.1,139.9,79.6,191.4c50.9,50.9,118.8,79,191.4,79s139.9-28.1,191.4-79
		c50.3-51.5,78.4-119.4,78.4-191.4s-28.1-139.9-79-191.4C650.7,138.7,582.8,110.6,510.2,110.6z M510.2,520.4
		c-76.7,0-139.3-62.6-139.3-139.3s62.6-139.3,139.3-139.3s139.3,62.6,139.3,139.3S587.5,520.4,510.2,520.4z M510.2,274.5
		c-58.5,0-106.5,48-106.5,106.5s48,106.5,106.5,106.5s106.5-48,106.5-106.5S569.4,274.5,510.2,274.5z"/>
</g>
<defs>
	<filter id="Adobe_OpacityMaskFilter" filterUnits="userSpaceOnUse" x="194.1" y="65" width="632.8" height="633.3">
		<feColorMatrix  type="matrix" values="1 0 0 0 0  0 1 0 0 0  0 0 1 0 0  0 0 0 1 0"/>
	</filter>
</defs>
<mask maskUnits="userSpaceOnUse" x="194.1" y="65" width="632.8" height="633.3" id="SVGID_2_">
	<g filter="url(#Adobe_OpacityMaskFilter)">
		<path fill="#FFFFFF" d="M510.2,110.6c-72,0-139.9,28.1-191.4,79s-79,119.4-79,191.4s28.1,139.9,79.6,191.4
			c50.9,50.9,118.8,79,191.4,79s139.9-28.1,191.4-79c50.3-51.5,78.4-119.4,78.4-191.4s-28.1-139.9-79-191.4
			C650.7,138.7,582.8,110.6,510.2,110.6z M510.2,520.4c-76.7,0-139.3-62.6-139.3-139.3s62.6-139.3,139.3-139.3
			s139.3,62.6,139.3,139.3S587.5,520.4,510.2,520.4z"/>
	</g>
</mask>
<g mask="url(#SVGID_2_)">
	<polygon fill="#FFFAED" points="417.2,698.3 510.2,381.1 603.9,698.3 	"/>
	<polygon fill="#FFFAED" points="417.2,65 510.2,382.2 603.9,65 	"/>
	<polygon fill="#FFFAED" points="194.1,288.6 510.8,381.7 194.1,474.7 	"/>
	<polygon fill="#FFFAED" points="826.9,288.6 510.2,381.7 826.9,474.7 	"/>
</g>
</svg>
