<?xml version="1.0" encoding="utf-8"?>
<!-- Generator: Adobe Illustrator 18.1.1, SVG Export Plug-In . SVG Version: 6.00 Build 0)  -->
<svg version="1.1" id="Laag_1" xmlns="http://www.w3.org/2000/svg" xmlns:xlink="http://www.w3.org/1999/xlink" x="0px" y="0px"
	 viewBox="0 0 89.5 89.8" enable-background="new 0 0 89.5 89.8" xml:space="preserve">
<g>
	<path fill="#FFFAF0" stroke="#45484E" stroke-width="4" stroke-miterlimit="10" d="M22.2,52.7l56-45.2c2.4-1.9,5.8,0.3,5,3.2
		l-13,60.2c-0.2,0.9-1.1,1.4-1.9,1.1l-23.6-1l8.5-15.3l-30-0.4C21.7,55.4,21.1,53.6,22.2,52.7z"/>
	<path fill="#79BE8F" stroke="#45484E" stroke-width="4" stroke-miterlimit="10" d="M52.1,41.2l-19,24.6c-1,1.3-0.9,3.3,0.3,4.5
		l13,13c1.7,1.7,4.5,1.1,5.5-1.1l31-71.9c1.2-2.8-1.6-5.6-4.4-4.4l-71.9,31c-2.2,0.9-2.7,3.8-1.1,5.5l13,13c1.2,1.2,3.1,1.3,4.5,0.3
		l24.6-19C50.5,34.1,54.5,38.1,52.1,41.2z"/>
</g>
</svg>
