<?xml version="1.0" encoding="utf-8"?>
<!-- Generator: Adobe Illustrator 18.1.1, SVG Export Plug-In . SVG Version: 6.00 Build 0)  -->
<svg version="1.1" id="Laag_1" xmlns="http://www.w3.org/2000/svg" xmlns:xlink="http://www.w3.org/1999/xlink" x="0px" y="0px"
	 viewBox="0 0 50 50" enable-background="new 0 0 50 50" xml:space="preserve">
<path fill="#45474E" d="M45.2,21.1H28.7V4.6c0-2-1.6-3.7-3.7-3.7h0c-2,0-3.7,1.6-3.7,3.7v16.5H4.9c-2,0-3.7,1.6-3.7,3.7l0,0
	c0,2,1.6,3.7,3.7,3.7h16.5v16.5c0,2,1.6,3.7,3.7,3.7h0c2,0,3.7-1.6,3.7-3.7V28.4h16.5c2,0,3.7-1.6,3.7-3.7l0,0
	C48.9,22.7,47.3,21.1,45.2,21.1z"/>
</svg>
