<?xml version="1.0" encoding="utf-8"?>
<!-- Generator: Adobe Illustrator 18.1.1, SVG Export Plug-In . SVG Version: 6.00 Build 0)  -->
<svg version="1.1" id="Layer_1" xmlns="http://www.w3.org/2000/svg" xmlns:xlink="http://www.w3.org/1999/xlink" x="0px" y="0px"
	 viewBox="0 0 1024 768" enable-background="new 0 0 1024 768" xml:space="preserve">
<path fill="none" stroke="#3E454D" stroke-width="5" stroke-miterlimit="10" d="M870.7,741.9c0.1-3.2,0.2-6.4,0.2-9.6
	c0-198.2-160.7-359-359-359c-198.2,0-359,160.7-359,359c0,3.2,0.2,6.4,0.2,9.6H870.7z"/>
<path fill="#FFF5E5" stroke="#3E454D" stroke-width="5" stroke-miterlimit="10" d="M870.7,741.9c0.1-3.2,0.2-6.4,0.2-9.6
	c0-198.2-160.7-359-359-359c-198.2,0-359,160.7-359,359c0,3.2,0.2,6.4,0.2,9.6H870.7z"/>
<path fill="#FFF7E8" stroke="#3E454D" stroke-miterlimit="10" d="M636.6,438.9l-99.1,118.4c-13.3,15.9-37.7,15.9-50.9,0l-99.1-118.4
	H636.6z"/>
<path fill="#FFF7E8" stroke="#3E454D" stroke-miterlimit="10" d="M636.6,438.9l-99.1,118.4c-13.3,15.9-37.7,15.9-50.9,0l-99.1-118.4
	H636.6z"/>
<circle fill="#FFF7E8" stroke="#3E454D" stroke-width="5" stroke-miterlimit="10" cx="512" cy="255.8" r="229.7"/>
<path fill="#3E464C" stroke="#3E454D" stroke-miterlimit="10" d="M290.7,194.3h442.6C706.4,97.3,617.6,26.1,512,26.1
	S317.6,97.3,290.7,194.3z"/>
</svg>
