<?xml version="1.0" encoding="utf-8"?>
<!-- Generator: Adobe Illustrator 18.1.1, SVG Export Plug-In . SVG Version: 6.00 Build 0)  -->
<svg version="1.1" id="Laag_1" xmlns="http://www.w3.org/2000/svg" xmlns:xlink="http://www.w3.org/1999/xlink" x="0px" y="0px"
	 viewBox="200 0 560 560" enable-background="new 200 0 560 560" xml:space="preserve">
<path fill="#FFF5E5" stroke="#3E454D" stroke-width="30" stroke-miterlimit="10" d="M705,280L705,280c0-19.9-16.1-36-36-36h-31
	c-4.1-18.1-11.2-35-20.8-50.2l21.9-21.9c14.1-14.1,14.1-36.9,0-50.9l0,0c-14.1-14.1-36.9-14.1-50.9,0l-21.9,21.9
	c-15.2-9.6-32.2-16.7-50.2-20.8V91c0-19.9-16.1-36-36-36h0c-19.9,0-36,16.1-36,36v31c-18.1,4.1-35,11.2-50.2,20.8l-21.9-21.9
	c-14.1-14.1-36.9-14.1-50.9,0l0,0c-14.1,14.1-14.1,36.9,0,50.9l21.9,21.9c-9.6,15.2-16.7,32.2-20.8,50.2h-31c-19.9,0-36,16.1-36,36
	v0c0,19.9,16.1,36,36,36h31c4.1,18.1,11.2,35,20.8,50.2l-21.9,21.9c-14.1,14.1-14.1,36.9,0,50.9l0,0c14.1,14.1,36.9,14.1,50.9,0
	l21.9-21.9c15.2,9.6,32.2,16.7,50.2,20.8v31c0,19.9,16.1,36,36,36h0c19.9,0,36-16.1,36-36v-31c18.1-4.1,35-11.2,50.2-20.8l21.9,21.9
	c14.1,14.1,36.9,14.1,50.9,0l0,0c14.1-14.1,14.1-36.9,0-50.9l-21.9-21.9c9.6-15.2,16.7-32.2,20.8-50.2h31
	C688.9,316,705,299.9,705,280z"/>
<circle fill="#EADFCE" cx="480" cy="280" r="76"/>
</svg>
