<?xml version="1.0" encoding="utf-8"?>
<!-- Generator: Adobe Illustrator 18.1.1, SVG Export Plug-In . SVG Version: 6.00 Build 0)  -->
<svg version="1.1" id="Laag_1" xmlns="http://www.w3.org/2000/svg" xmlns:xlink="http://www.w3.org/1999/xlink" x="0px" y="0px"
	 viewBox="0 0 1024 768" enable-background="new 0 0 1024 768" xml:space="preserve">
<path fill="#FFF5E5" stroke="#3E454D" stroke-width="30" stroke-miterlimit="10" d="M737.6,476.8c7.2-17.4,24.1-28.8,42.9-28.8H841
	c18.8,0,34-15.2,34-34v-60.2c0-18.8-15.2-34-34-34h-60.5c-18.8,0-35.8-11.4-42.9-28.8c-0.1-0.3-0.2-0.5-0.3-0.8
	c-7.3-17.5-3.5-37.6,9.9-51l40.5-40.5c13.3-13.3,13.3-34.8,0-48.1L745.1,108c-13.3-13.3-34.8-13.3-48.1,0l-40.5,40.5
	c-13.4,13.4-33.5,17.2-51,9.9c-0.3-0.1-0.5-0.2-0.8-0.3c-17.4-7.2-28.8-24.1-28.8-42.9V55c0-18.8-15.2-34-34-34h-60.2
	c-18.8,0-34,15.2-34,34v60.5c0,18.8-11.4,35.8-28.8,42.9c-0.3,0.1-0.5,0.2-0.8,0.3c-17.5,7.3-37.6,3.5-51-9.9L327,108.4
	c-13.3-13.3-34.8-13.3-48.1,0L236.3,151c-13.3,13.3-13.3,34.8,0,48.1l40.5,40.5c13.4,13.4,17.2,33.5,9.9,51
	c-0.1,0.3-0.2,0.5-0.3,0.8c-7.2,17.4-24.1,28.8-42.9,28.8H183c-18.8,0-34,15.2-34,34v60.2c0,18.8,15.2,34,34,34h60.5
	c18.8,0,35.8,11.4,42.9,28.8c0.1,0.3,0.2,0.5,0.3,0.8c7.3,17.5,3.5,37.6-9.9,51l-40.4,40c-13.3,13.3-13.3,34.8,0,48.1l42.6,42.6
	c13.3,13.3,34.8,13.3,48.1,0l40.5-40.5c13.4-13.4,33.5-17.2,51-9.9c0.3,0.1,0.5,0.2,0.8,0.3c17.4,7.2,28.8,24.1,28.8,42.9V713
	c0,18.8,15.2,34,34,34h60.2c18.8,0,34-15.2,34-34v-60.5c0-18.8,11.4-35.8,28.8-42.9c0.3-0.1,0.5-0.2,0.8-0.3
	c17.5-7.3,37.6-3.5,51,9.9l40.5,40.5c13.3,13.3,34.8,13.3,48.1,0l42.6-42.6c13.3-13.3,13.3-34.8,0-48.1l-40.5-40.5
	c-13.4-13.4-17.2-33.5-9.9-51C737.4,477.4,737.5,477.1,737.6,476.8z M512,503.4c-65.9,0-119.4-53.5-119.4-119.4
	S446.1,264.6,512,264.6S631.4,318.1,631.4,384S577.9,503.4,512,503.4z"/>
</svg>
