<?xml version="1.0" encoding="utf-8"?>
<!-- Generator: Adobe Illustrator 18.1.1, SVG Export Plug-In . SVG Version: 6.00 Build 0)  -->
<svg version="1.1" id="Laag_1" xmlns="http://www.w3.org/2000/svg" xmlns:xlink="http://www.w3.org/1999/xlink" x="0px" y="0px"
	 viewBox="200 0 560 560" enable-background="new 200 0 560 560" xml:space="preserve">
<path fill="none" stroke="#45484E" stroke-width="45" stroke-miterlimit="10" d="M509.1,52.6l54.1,109.1
	c5.1,9.3,13.5,16.1,24.5,17.8l121,17.8c27.1,4.2,37.2,36.4,17.8,55.8l-88,84.6c-7.6,7.6-11,18.6-9.3,28.8l20.3,120.1
	c4.2,26.2-23.7,46.5-47.4,34.7l-107.4-56.7c-9.3-5.1-21.1-5.1-30.5,0l-107.4,56.7c-23.7,12.7-51.6-7.6-47.4-34.7l20.3-120.1
	c1.7-10.2-1.7-21.1-9.3-28.8l-87.1-84.6c-19.5-18.6-8.5-51.6,17.8-55.8l121-17.8c11-1.7,19.5-8.5,24.5-17.8l54.1-109.1
	C462.6,28.9,497.2,28.9,509.1,52.6z"/>
</svg>
