<?xml version="1.0" encoding="utf-8"?>
<!-- Generator: Adobe Illustrator 18.1.1, SVG Export Plug-In . SVG Version: 6.00 Build 0)  -->
<svg version="1.1" id="Laag_1" xmlns="http://www.w3.org/2000/svg" xmlns:xlink="http://www.w3.org/1999/xlink" x="0px" y="0px"
	 viewBox="0 0 69.2 66.2" enable-background="new 0 0 69.2 66.2" xml:space="preserve">
<path fill="#FFD542" stroke="#45484E" stroke-width="5" stroke-miterlimit="10" d="M38.2,6.2l6.4,12.9c0.6,1.1,1.6,1.9,2.9,2.1
	l14.3,2.1c3.2,0.5,4.4,4.3,2.1,6.6L53.5,39.9c-0.9,0.9-1.3,2.2-1.1,3.4l2.4,14.2c0.5,3.1-2.8,5.5-5.6,4.1l-12.7-6.7
	c-1.1-0.6-2.5-0.6-3.6,0l-12.7,6.7c-2.8,1.5-6.1-0.9-5.6-4.1L17,43.3c0.2-1.2-0.2-2.5-1.1-3.4L5.6,29.9c-2.3-2.2-1-6.1,2.1-6.6
	L22,21.2c1.3-0.2,2.3-1,2.9-2.1l6.4-12.9C32.7,3.4,36.8,3.4,38.2,6.2z"/>
</svg>
