<?xml version="1.0" encoding="utf-8"?>
<!-- Generator: Adobe Illustrator 18.1.1, SVG Export Plug-In . SVG Version: 6.00 Build 0)  -->
<svg version="1.1" id="Laag_1" xmlns="http://www.w3.org/2000/svg" xmlns:xlink="http://www.w3.org/1999/xlink" x="0px" y="0px"
	 viewBox="0 0 83.5 85.8" enable-background="new 0 0 83.5 85.8" xml:space="preserve">
<g>
	<circle fill="#87D0F3" stroke="#45484E" stroke-width="4" stroke-miterlimit="10" cx="46" cy="44.5" r="32.4"/>
	<path fill="#44484D" d="M14.8,38.6c0,2.8,0.5,5.4,1.5,7.8h8.3c2.3,0,4.2-1.9,4.2-4.2v0c0-2.3-1.9-4.2-4.2-4.2h-0.5
		c-0.9,0-1.7-0.7-1.7-1.7v-0.9c0-0.9,0.7-1.7,1.7-1.7H27c2.3,0,4.2-1.9,4.2-4.2v0c0-2.3-1.9-4.2-4.2-4.2h-7.4
		C16.6,29,14.8,33.6,14.8,38.6z"/>
	<path fill="#44484D" d="M61.6,49.4H59c-2.5,0-4.5,2-4.5,4.5v0c0,2.5,2,4.5,4.5,4.5h0.1c1.3,0,2.3,1,2.3,2.3v0c0,1.3,1,2.3,2.3,2.3
		h9.8c3.2-4.6,5.1-10.1,5.1-16.1c0-2.3-0.3-4.5-0.8-6.6h-7c-3.8,0-6.8,3.1-6.8,6.8v0C63.9,48.4,62.8,49.4,61.6,49.4z"/>
	<circle fill="none" stroke="#44484D" stroke-width="4" stroke-miterlimit="10" cx="46" cy="44.5" r="32.4"/>
	<polyline fill="none" stroke="#44484D" stroke-width="3" stroke-miterlimit="10" points="58.8,14.6 13.6,44.5 63.7,72.3 	"/>
	<circle fill="#FFFAF0" stroke="#44484D" stroke-width="4" stroke-miterlimit="10" cx="58.8" cy="14.6" r="9.2"/>
	<circle fill="#FFFAF0" stroke="#44484D" stroke-width="4" stroke-miterlimit="10" cx="13.6" cy="44.5" r="9.2"/>
	<circle fill="#FFFAF0" stroke="#44484D" stroke-width="4" stroke-miterlimit="10" cx="63.7" cy="72.3" r="9.2"/>
</g>
</svg>
